# xmcd
#
# Track frame offsets:
#	150
#	14570
#	31284
#	46694
#	68571
#	83701
#	95911
#	113020
#	127001
#	142569
#	160121
#	176616
#	192258
#	211703
#	224969
#	242226
#	260840
#	274672
#	291580
#	309524
#
# Disc length: 4395 seconds
#
# Revision: 4
# Processed by: cddbd v1.5.2PL0 Copyright (c) Steve Scherf et al.
# Submitted via: EasyCDDAExtractor 10.0.2.1
#
DISCID=29112914
DTITLE=Sandy e Junior - oOo
DYEAR=1900
DGENRE=Pop
TTITLE0=Era Uma Vez...
TTITLE1=Inesquecível
TTITLE2=Etc... e Tal
TTITLE3=Não Ter
TTITLE4=Sábado a Noite
TTITLE5=Little Cowboy
TTITLE6=Sonho Azul
TTITLE7=Abra a Porta Mariquinha, A Resposta da Mariquinha
TTITLE8=Dig Dig Joy
TTITLE9=Eu Vou Te Namorar
TTITLE10=Aniversário do Tatu
TTITLE11=Vai Ter Que Rebolar
TTITLE12=Como Você
TTITLE13=Jambalaya
TTITLE14=Casamento Natural
TTITLE15=Pot-Pourri (Bee Gees)
TTITLE16=Nascemos Para Cantar
TTITLE17=Criança Esperança
TTITLE18=Maria Chiquinha
TTITLE19=Vamos Construir
EXTD=538220-2\nby Carlos Ito
EXTT0=
EXTT1=
EXTT2=
EXTT3=
EXTT4=
EXTT5=
EXTT6=
EXTT7=
EXTT8=
EXTT9=
EXTT10=
EXTT11=
EXTT12=
EXTT13=
EXTT14=
EXTT15=
EXTT16=
EXTT17=
EXTT18=
EXTT19=
PLAYORDER=
